<svg xmlns="http://www.w3.org/2000/svg" viewBox="0 0 400 180" fill="none">
  <defs>
    <linearGradient id="spoolGrad" x1="0%" y1="0%" x2="0%" y2="100%">
      <stop offset="0%" style="stop-color:#4f46e5"/>
      <stop offset="100%" style="stop-color:#6366f1"/>
    </linearGradient>
    <linearGradient id="threadWrap" x1="0%" y1="0%" x2="0%" y2="100%">
      <stop offset="0%" style="stop-color:#a78bfa"/>
      <stop offset="50%" style="stop-color:#8b5cf6"/>
      <stop offset="100%" style="stop-color:#a78bfa"/>
    </linearGradient>
    <linearGradient id="threadGrad" x1="0%" y1="0%" x2="100%" y2="0%">
      <stop offset="0%" style="stop-color:#8b5cf6"/>
      <stop offset="80%" style="stop-color:#a78bfa"/>
      <stop offset="100%" style="stop-color:#a78bfa;stop-opacity:0.6"/>
    </linearGradient>
    <linearGradient id="flangeGrad" x1="0%" y1="0%" x2="0%" y2="100%">
      <stop offset="0%" style="stop-color:#818cf8"/>
      <stop offset="100%" style="stop-color:#4338ca"/>
    </linearGradient>
    <linearGradient id="needleGrad" x1="0%" y1="0%" x2="100%" y2="0%">
      <stop offset="0%" style="stop-color:#c4b5fd"/>
      <stop offset="100%" style="stop-color:#e0e7ff"/>
    </linearGradient>
  </defs>
  <style>
    .label { font-family: 'Courier New', Courier, monospace; font-size: 13px; fill: #c4b5fd; }
    .label-bright { font-family: 'Courier New', Courier, monospace; font-size: 13px; fill: #e0e7ff; }
    .code { font-family: 'Courier New', Courier, monospace; font-size: 11px; fill: #6366f1; opacity: 0.5; }
  </style>
  <!-- Spool body (cylinder side view) -->
  <!-- Top flange — juts out beyond body like a real bobbin -->
  <ellipse cx="100" cy="28" rx="72" ry="14" fill="url(#flangeGrad)" opacity="0.9"/>
  <!-- Core cylinder -->
  <rect x="45" y="28" width="110" height="124" rx="2" fill="url(#spoolGrad)" opacity="0.3"/>
  <!-- Thread wraps -->
  <rect x="55" y="36" width="90" height="108" rx="4" fill="url(#threadWrap)" opacity="0.7"/>
  <!-- Thread wrap lines (horizontal) -->
  <line x1="55" y1="50" x2="145" y2="50" stroke="#c4b5fd" stroke-width="0.5" opacity="0.5"/>
  <line x1="55" y1="64" x2="145" y2="64" stroke="#c4b5fd" stroke-width="0.5" opacity="0.5"/>
  <line x1="55" y1="78" x2="145" y2="78" stroke="#c4b5fd" stroke-width="0.5" opacity="0.5"/>
  <line x1="55" y1="92" x2="145" y2="92" stroke="#c4b5fd" stroke-width="0.5" opacity="0.5"/>
  <line x1="55" y1="106" x2="145" y2="106" stroke="#c4b5fd" stroke-width="0.5" opacity="0.5"/>
  <line x1="55" y1="120" x2="145" y2="120" stroke="#c4b5fd" stroke-width="0.5" opacity="0.5"/>
  <!-- Bottom flange — juts out beyond body like a real bobbin -->
  <ellipse cx="100" cy="152" rx="72" ry="14" fill="url(#flangeGrad)" opacity="0.9"/>
  <!-- Side edges of core cylinder only -->
  <line x1="45" y1="28" x2="45" y2="152" stroke="#6366f1" stroke-width="1.5"/>
  <line x1="155" y1="28" x2="155" y2="152" stroke="#6366f1" stroke-width="1.5"/>
  <!-- Code symbols the thread weaves through -->
  <text x="215" y="76" class="code" font-size="14">{</text>
  <text x="275" y="98" class="code" font-size="14">fn</text>
  <text x="335" y="72" class="code" font-size="14">}</text>
  <text x="247" y="104" class="code" font-size="12">&lt;/&gt;</text>
  <text x="310" y="104" class="code" font-size="12">///</text>
  <text x="355" y="96" class="code" font-size="14">()</text>
  <!-- Thread weaving through code symbols, ending at needle eye -->
  <path d="M 145 90 C 165 90, 185 78, 220 78 C 250 78, 258 95, 280 95 C 302 95, 315 74, 340 74 C 352 74, 355 80, 358 82" stroke="url(#threadGrad)" stroke-width="2" fill="none" stroke-linecap="round"/>
  <!-- Needle — long tapered shaft with eye at back -->
  <!-- Needle body (tapered from eye to point) -->
  <path d="M 355 84 L 393 76" stroke="#d4d4d8" stroke-width="2.2" stroke-linecap="round"/>
  <path d="M 393 76 L 398 74.5" stroke="#e4e4e7" stroke-width="1.6" stroke-linecap="round"/>
  <!-- Needle point (sharp taper) -->
  <path d="M 398 74.5 L 400 74" stroke="#f4f4f5" stroke-width="0.8" stroke-linecap="round"/>
  <!-- Needle eye (oval hole near the back where thread enters) -->
  <ellipse cx="357" cy="83" rx="2" ry="3.5" stroke="#a1a1aa" stroke-width="0.9" fill="#1e1b4b" transform="rotate(-12 357 83)"/>
  <!-- Labels on the right -->
  <text x="200" y="130" class="label-bright">threading context</text>
  <text x="200" y="148" class="label">through your codebase</text>
  <text x="200" y="170" class="label" opacity="0.7">search · coupling · context</text>
</svg>
