<!DOCTYPE svg PUBLIC "-//W3C//DTD SVG 1.1//EN"
  "http://www.w3.org/Graphics/SVG/1.1/DTD/svg11.dtd">
<svg xmlns:xlink="http://www.w3.org/1999/xlink" width="499.939375pt" height="269.835875pt" viewBox="0 0 499.939375 269.835875" xmlns="http://www.w3.org/2000/svg" version="1.1">
 <metadata>
  <rdf:RDF xmlns:dc="http://purl.org/dc/elements/1.1/" xmlns:cc="http://creativecommons.org/ns#" xmlns:rdf="http://www.w3.org/1999/02/22-rdf-syntax-ns#">
   <cc:Work>
    <dc:type rdf:resource="http://purl.org/dc/dcmitype/StillImage"/>
    <dc:date>2026-03-02T14:31:57.742942</dc:date>
    <dc:format>image/svg+xml</dc:format>
    <dc:creator>
     <cc:Agent>
      <dc:title>Matplotlib v3.10.8, https://matplotlib.org/</dc:title>
     </cc:Agent>
    </dc:creator>
   </cc:Work>
  </rdf:RDF>
 </metadata>
 <defs>
  <style type="text/css">*{stroke-linejoin: round; stroke-linecap: butt}</style>
 </defs>
 <g id="figure_1">
  <g id="patch_1">
   <path d="M 0 269.835875 
L 499.939375 269.835875 
L 499.939375 0 
L 0 0 
z
" style="fill: #282a36"/>
  </g>
  <g id="axes_1">
   <g id="patch_2">
    <path d="M 46.339375 244.989937 
L 492.739375 244.989937 
L 492.739375 23.229937 
L 46.339375 23.229937 
z
" style="fill: #282a36"/>
   </g>
   <g id="patch_3">
    <path d="M 66.630284 244.989937 
L 69.800739 244.989937 
L 69.800739 33.789937 
L 66.630284 33.789937 
z
" clip-path="url(#p7ab34038ed)" style="fill: #bd93f9"/>
   </g>
   <g id="patch_4">
    <path d="M 98.33483 244.989937 
L 101.505284 244.989937 
L 101.505284 139.389937 
L 98.33483 139.389937 
z
" clip-path="url(#p7ab34038ed)" style="fill: #bd93f9"/>
   </g>
   <g id="patch_5">
    <path d="M 130.039375 244.989937 
L 133.20983 244.989937 
L 133.20983 76.029937 
L 130.039375 76.029937 
z
" clip-path="url(#p7ab34038ed)" style="fill: #bd93f9"/>
   </g>
   <g id="patch_6">
    <path d="M 161.74392 244.989937 
L 164.914375 244.989937 
L 164.914375 86.589937 
L 161.74392 86.589937 
z
" clip-path="url(#p7ab34038ed)" style="fill: #bd93f9"/>
   </g>
   <g id="patch_7">
    <path d="M 193.448466 244.989937 
L 196.61892 244.989937 
L 196.61892 71.922097 
L 193.448466 71.922097 
z
" clip-path="url(#p7ab34038ed)" style="fill: #bd93f9"/>
   </g>
   <g id="patch_8">
    <path d="M 225.153011 244.989937 
L 228.323466 244.989937 
L 228.323466 104.182897 
L 225.153011 104.182897 
z
" clip-path="url(#p7ab34038ed)" style="fill: #bd93f9"/>
   </g>
   <g id="patch_9">
    <path d="M 256.857557 244.989937 
L 260.028011 244.989937 
L 260.028011 76.029937 
L 256.857557 76.029937 
z
" clip-path="url(#p7ab34038ed)" style="fill: #bd93f9"/>
   </g>
   <g id="patch_10">
    <path d="M 288.562102 244.989937 
L 291.732557 244.989937 
L 291.732557 77.374577 
L 288.562102 77.374577 
z
" clip-path="url(#p7ab34038ed)" style="fill: #bd93f9"/>
   </g>
   <g id="patch_11">
    <path d="M 320.266648 244.989937 
L 323.437102 244.989937 
L 323.437102 176.607601 
L 320.266648 176.607601 
z
" clip-path="url(#p7ab34038ed)" style="fill: #bd93f9"/>
   </g>
   <g id="patch_12">
    <path d="M 351.971193 244.989937 
L 355.141648 244.989937 
L 355.141648 124.310257 
L 351.971193 124.310257 
z
" clip-path="url(#p7ab34038ed)" style="fill: #bd93f9"/>
   </g>
   <g id="patch_13">
    <path d="M 383.675739 244.989937 
L 386.846193 244.989937 
L 386.846193 54.909937 
L 383.675739 54.909937 
z
" clip-path="url(#p7ab34038ed)" style="fill: #bd93f9"/>
   </g>
   <g id="patch_14">
    <path d="M 415.380284 244.989937 
L 418.550739 244.989937 
L 418.550739 130.593457 
L 415.380284 130.593457 
z
" clip-path="url(#p7ab34038ed)" style="fill: #bd93f9"/>
   </g>
   <g id="patch_15">
    <path d="M 447.08483 244.989937 
L 450.255284 244.989937 
L 450.255284 33.789937 
L 447.08483 33.789937 
z
" clip-path="url(#p7ab34038ed)" style="fill: #bd93f9"/>
   </g>
   <g id="patch_16">
    <path d="M 69.800739 244.989937 
L 72.971193 244.989937 
L 72.971193 33.789937 
L 69.800739 33.789937 
z
" clip-path="url(#p7ab34038ed)" style="fill: #50fa7b"/>
   </g>
   <g id="patch_17">
    <path d="M 101.505284 244.989937 
L 104.675739 244.989937 
L 104.675739 139.389937 
L 101.505284 139.389937 
z
" clip-path="url(#p7ab34038ed)" style="fill: #50fa7b"/>
   </g>
   <g id="patch_18">
    <path d="M 133.20983 244.989937 
L 136.380284 244.989937 
L 136.380284 97.149937 
L 133.20983 97.149937 
z
" clip-path="url(#p7ab34038ed)" style="fill: #50fa7b"/>
   </g>
   <g id="patch_19">
    <path d="M 164.914375 244.989937 
L 168.08483 244.989937 
L 168.08483 86.589937 
L 164.914375 86.589937 
z
" clip-path="url(#p7ab34038ed)" style="fill: #50fa7b"/>
   </g>
   <g id="patch_20">
    <path d="M 196.61892 244.989937 
L 199.789375 244.989937 
L 199.789375 86.589937 
L 196.61892 86.589937 
z
" clip-path="url(#p7ab34038ed)" style="fill: #50fa7b"/>
   </g>
   <g id="patch_21">
    <path d="M 228.323466 244.989937 
L 231.49392 244.989937 
L 231.49392 90.778737 
L 228.323466 90.778737 
z
" clip-path="url(#p7ab34038ed)" style="fill: #50fa7b"/>
   </g>
   <g id="patch_22">
    <path d="M 260.028011 244.989937 
L 263.198466 244.989937 
L 263.198466 244.989937 
L 260.028011 244.989937 
z
" clip-path="url(#p7ab34038ed)" style="fill: #50fa7b"/>
   </g>
   <g id="patch_23">
    <path d="M 291.732557 244.989937 
L 294.903011 244.989937 
L 294.903011 244.989937 
L 291.732557 244.989937 
z
" clip-path="url(#p7ab34038ed)" style="fill: #50fa7b"/>
   </g>
   <g id="patch_24">
    <path d="M 323.437102 244.989937 
L 326.607557 244.989937 
L 326.607557 110.657686 
L 323.437102 110.657686 
z
" clip-path="url(#p7ab34038ed)" style="fill: #50fa7b"/>
   </g>
   <g id="patch_25">
    <path d="M 355.141648 244.989937 
L 358.312102 244.989937 
L 358.312102 124.310257 
L 355.141648 124.310257 
z
" clip-path="url(#p7ab34038ed)" style="fill: #50fa7b"/>
   </g>
   <g id="patch_26">
    <path d="M 386.846193 244.989937 
L 390.016648 244.989937 
L 390.016648 61.949937 
L 386.846193 61.949937 
z
" clip-path="url(#p7ab34038ed)" style="fill: #50fa7b"/>
   </g>
   <g id="patch_27">
    <path d="M 418.550739 244.989937 
L 421.721193 244.989937 
L 421.721193 95.391697 
L 418.550739 95.391697 
z
" clip-path="url(#p7ab34038ed)" style="fill: #50fa7b"/>
   </g>
   <g id="patch_28">
    <path d="M 450.255284 244.989937 
L 453.425739 244.989937 
L 453.425739 33.789937 
L 450.255284 33.789937 
z
" clip-path="url(#p7ab34038ed)" style="fill: #50fa7b"/>
   </g>
   <g id="patch_29">
    <path d="M 72.971193 244.989937 
L 76.141648 244.989937 
L 76.141648 244.989937 
L 72.971193 244.989937 
z
" clip-path="url(#p7ab34038ed)" style="fill: #ff79c6"/>
   </g>
   <g id="patch_30">
    <path d="M 104.675739 244.989937 
L 107.846193 244.989937 
L 107.846193 244.989937 
L 104.675739 244.989937 
z
" clip-path="url(#p7ab34038ed)" style="fill: #ff79c6"/>
   </g>
   <g id="patch_31">
    <path d="M 136.380284 244.989937 
L 139.550739 244.989937 
L 139.550739 244.989937 
L 136.380284 244.989937 
z
" clip-path="url(#p7ab34038ed)" style="fill: #ff79c6"/>
   </g>
   <g id="patch_32">
    <path d="M 168.08483 244.989937 
L 171.255284 244.989937 
L 171.255284 244.989937 
L 168.08483 244.989937 
z
" clip-path="url(#p7ab34038ed)" style="fill: #ff79c6"/>
   </g>
   <g id="patch_33">
    <path d="M 199.789375 244.989937 
L 202.95983 244.989937 
L 202.95983 244.989937 
L 199.789375 244.989937 
z
" clip-path="url(#p7ab34038ed)" style="fill: #ff79c6"/>
   </g>
   <g id="patch_34">
    <path d="M 231.49392 244.989937 
L 234.664375 244.989937 
L 234.664375 244.989937 
L 231.49392 244.989937 
z
" clip-path="url(#p7ab34038ed)" style="fill: #ff79c6"/>
   </g>
   <g id="patch_35">
    <path d="M 263.198466 244.989937 
L 266.36892 244.989937 
L 266.36892 244.989937 
L 263.198466 244.989937 
z
" clip-path="url(#p7ab34038ed)" style="fill: #ff79c6"/>
   </g>
   <g id="patch_36">
    <path d="M 294.903011 244.989937 
L 298.073466 244.989937 
L 298.073466 244.989937 
L 294.903011 244.989937 
z
" clip-path="url(#p7ab34038ed)" style="fill: #ff79c6"/>
   </g>
   <g id="patch_37">
    <path d="M 326.607557 244.989937 
L 329.778011 244.989937 
L 329.778011 174.596977 
L 326.607557 174.596977 
z
" clip-path="url(#p7ab34038ed)" style="fill: #ff79c6"/>
   </g>
   <g id="patch_38">
    <path d="M 358.312102 244.989937 
L 361.482557 244.989937 
L 361.482557 244.989937 
L 358.312102 244.989937 
z
" clip-path="url(#p7ab34038ed)" style="fill: #ff79c6"/>
   </g>
   <g id="patch_39">
    <path d="M 390.016648 244.989937 
L 393.187102 244.989937 
L 393.187102 244.989937 
L 390.016648 244.989937 
z
" clip-path="url(#p7ab34038ed)" style="fill: #ff79c6"/>
   </g>
   <g id="patch_40">
    <path d="M 421.721193 244.989937 
L 424.891648 244.989937 
L 424.891648 244.989937 
L 421.721193 244.989937 
z
" clip-path="url(#p7ab34038ed)" style="fill: #ff79c6"/>
   </g>
   <g id="patch_41">
    <path d="M 453.425739 244.989937 
L 456.596193 244.989937 
L 456.596193 244.989937 
L 453.425739 244.989937 
z
" clip-path="url(#p7ab34038ed)" style="fill: #ff79c6"/>
   </g>
   <g id="patch_42">
    <path d="M 76.141648 244.989937 
L 79.312102 244.989937 
L 79.312102 244.989937 
L 76.141648 244.989937 
z
" clip-path="url(#p7ab34038ed)" style="fill: #f1fa8c"/>
   </g>
   <g id="patch_43">
    <path d="M 107.846193 244.989937 
L 111.016648 244.989937 
L 111.016648 244.989937 
L 107.846193 244.989937 
z
" clip-path="url(#p7ab34038ed)" style="fill: #f1fa8c"/>
   </g>
   <g id="patch_44">
    <path d="M 139.550739 244.989937 
L 142.721193 244.989937 
L 142.721193 244.989937 
L 139.550739 244.989937 
z
" clip-path="url(#p7ab34038ed)" style="fill: #f1fa8c"/>
   </g>
   <g id="patch_45">
    <path d="M 171.255284 244.989937 
L 174.425739 244.989937 
L 174.425739 244.989937 
L 171.255284 244.989937 
z
" clip-path="url(#p7ab34038ed)" style="fill: #f1fa8c"/>
   </g>
   <g id="patch_46">
    <path d="M 202.95983 244.989937 
L 206.130284 244.989937 
L 206.130284 244.989937 
L 202.95983 244.989937 
z
" clip-path="url(#p7ab34038ed)" style="fill: #f1fa8c"/>
   </g>
   <g id="patch_47">
    <path d="M 234.664375 244.989937 
L 237.83483 244.989937 
L 237.83483 244.989937 
L 234.664375 244.989937 
z
" clip-path="url(#p7ab34038ed)" style="fill: #f1fa8c"/>
   </g>
   <g id="patch_48">
    <path d="M 266.36892 244.989937 
L 269.539375 244.989937 
L 269.539375 244.989937 
L 266.36892 244.989937 
z
" clip-path="url(#p7ab34038ed)" style="fill: #f1fa8c"/>
   </g>
   <g id="patch_49">
    <path d="M 298.073466 244.989937 
L 301.24392 244.989937 
L 301.24392 244.989937 
L 298.073466 244.989937 
z
" clip-path="url(#p7ab34038ed)" style="fill: #f1fa8c"/>
   </g>
   <g id="patch_50">
    <path d="M 329.778011 244.989937 
L 332.948466 244.989937 
L 332.948466 162.861297 
L 329.778011 162.861297 
z
" clip-path="url(#p7ab34038ed)" style="fill: #f1fa8c"/>
   </g>
   <g id="patch_51">
    <path d="M 361.482557 244.989937 
L 364.653011 244.989937 
L 364.653011 244.989937 
L 361.482557 244.989937 
z
" clip-path="url(#p7ab34038ed)" style="fill: #f1fa8c"/>
   </g>
   <g id="patch_52">
    <path d="M 393.187102 244.989937 
L 396.357557 244.989937 
L 396.357557 244.989937 
L 393.187102 244.989937 
z
" clip-path="url(#p7ab34038ed)" style="fill: #f1fa8c"/>
   </g>
   <g id="patch_53">
    <path d="M 424.891648 244.989937 
L 428.062102 244.989937 
L 428.062102 244.989937 
L 424.891648 244.989937 
z
" clip-path="url(#p7ab34038ed)" style="fill: #f1fa8c"/>
   </g>
   <g id="patch_54">
    <path d="M 456.596193 244.989937 
L 459.766648 244.989937 
L 459.766648 244.989937 
L 456.596193 244.989937 
z
" clip-path="url(#p7ab34038ed)" style="fill: #f1fa8c"/>
   </g>
   <g id="patch_55">
    <path d="M 79.312102 244.989937 
L 82.482557 244.989937 
L 82.482557 244.989937 
L 79.312102 244.989937 
z
" clip-path="url(#p7ab34038ed)" style="fill: #8be9fd"/>
   </g>
   <g id="patch_56">
    <path d="M 111.016648 244.989937 
L 114.187102 244.989937 
L 114.187102 244.989937 
L 111.016648 244.989937 
z
" clip-path="url(#p7ab34038ed)" style="fill: #8be9fd"/>
   </g>
   <g id="patch_57">
    <path d="M 142.721193 244.989937 
L 145.891648 244.989937 
L 145.891648 244.989937 
L 142.721193 244.989937 
z
" clip-path="url(#p7ab34038ed)" style="fill: #8be9fd"/>
   </g>
   <g id="patch_58">
    <path d="M 174.425739 244.989937 
L 177.596193 244.989937 
L 177.596193 244.989937 
L 174.425739 244.989937 
z
" clip-path="url(#p7ab34038ed)" style="fill: #8be9fd"/>
   </g>
   <g id="patch_59">
    <path d="M 206.130284 244.989937 
L 209.300739 244.989937 
L 209.300739 244.989937 
L 206.130284 244.989937 
z
" clip-path="url(#p7ab34038ed)" style="fill: #8be9fd"/>
   </g>
   <g id="patch_60">
    <path d="M 237.83483 244.989937 
L 241.005284 244.989937 
L 241.005284 244.989937 
L 237.83483 244.989937 
z
" clip-path="url(#p7ab34038ed)" style="fill: #8be9fd"/>
   </g>
   <g id="patch_61">
    <path d="M 269.539375 244.989937 
L 272.70983 244.989937 
L 272.70983 244.989937 
L 269.539375 244.989937 
z
" clip-path="url(#p7ab34038ed)" style="fill: #8be9fd"/>
   </g>
   <g id="patch_62">
    <path d="M 301.24392 244.989937 
L 304.414375 244.989937 
L 304.414375 244.989937 
L 301.24392 244.989937 
z
" clip-path="url(#p7ab34038ed)" style="fill: #8be9fd"/>
   </g>
   <g id="patch_63">
    <path d="M 332.948466 244.989937 
L 336.11892 244.989937 
L 336.11892 127.661297 
L 332.948466 127.661297 
z
" clip-path="url(#p7ab34038ed)" style="fill: #8be9fd"/>
   </g>
   <g id="patch_64">
    <path d="M 364.653011 244.989937 
L 367.823466 244.989937 
L 367.823466 244.989937 
L 364.653011 244.989937 
z
" clip-path="url(#p7ab34038ed)" style="fill: #8be9fd"/>
   </g>
   <g id="patch_65">
    <path d="M 396.357557 244.989937 
L 399.528011 244.989937 
L 399.528011 244.989937 
L 396.357557 244.989937 
z
" clip-path="url(#p7ab34038ed)" style="fill: #8be9fd"/>
   </g>
   <g id="patch_66">
    <path d="M 428.062102 244.989937 
L 431.232557 244.989937 
L 431.232557 244.989937 
L 428.062102 244.989937 
z
" clip-path="url(#p7ab34038ed)" style="fill: #8be9fd"/>
   </g>
   <g id="patch_67">
    <path d="M 459.766648 244.989937 
L 462.937102 244.989937 
L 462.937102 244.989937 
L 459.766648 244.989937 
z
" clip-path="url(#p7ab34038ed)" style="fill: #8be9fd"/>
   </g>
   <g id="patch_68">
    <path d="M 82.482557 244.989937 
L 85.653011 244.989937 
L 85.653011 244.989937 
L 82.482557 244.989937 
z
" clip-path="url(#p7ab34038ed)" style="fill: #ffb86c"/>
   </g>
   <g id="patch_69">
    <path d="M 114.187102 244.989937 
L 117.357557 244.989937 
L 117.357557 244.989937 
L 114.187102 244.989937 
z
" clip-path="url(#p7ab34038ed)" style="fill: #ffb86c"/>
   </g>
   <g id="patch_70">
    <path d="M 145.891648 244.989937 
L 149.062102 244.989937 
L 149.062102 244.989937 
L 145.891648 244.989937 
z
" clip-path="url(#p7ab34038ed)" style="fill: #ffb86c"/>
   </g>
   <g id="patch_71">
    <path d="M 177.596193 244.989937 
L 180.766648 244.989937 
L 180.766648 244.989937 
L 177.596193 244.989937 
z
" clip-path="url(#p7ab34038ed)" style="fill: #ffb86c"/>
   </g>
   <g id="patch_72">
    <path d="M 209.300739 244.989937 
L 212.471193 244.989937 
L 212.471193 244.989937 
L 209.300739 244.989937 
z
" clip-path="url(#p7ab34038ed)" style="fill: #ffb86c"/>
   </g>
   <g id="patch_73">
    <path d="M 241.005284 244.989937 
L 244.175739 244.989937 
L 244.175739 244.989937 
L 241.005284 244.989937 
z
" clip-path="url(#p7ab34038ed)" style="fill: #ffb86c"/>
   </g>
   <g id="patch_74">
    <path d="M 272.70983 244.989937 
L 275.880284 244.989937 
L 275.880284 244.989937 
L 272.70983 244.989937 
z
" clip-path="url(#p7ab34038ed)" style="fill: #ffb86c"/>
   </g>
   <g id="patch_75">
    <path d="M 304.414375 244.989937 
L 307.58483 244.989937 
L 307.58483 244.989937 
L 304.414375 244.989937 
z
" clip-path="url(#p7ab34038ed)" style="fill: #ffb86c"/>
   </g>
   <g id="patch_76">
    <path d="M 336.11892 244.989937 
L 339.289375 244.989937 
L 339.289375 115.925617 
L 336.11892 115.925617 
z
" clip-path="url(#p7ab34038ed)" style="fill: #ffb86c"/>
   </g>
   <g id="patch_77">
    <path d="M 367.823466 244.989937 
L 370.99392 244.989937 
L 370.99392 244.989937 
L 367.823466 244.989937 
z
" clip-path="url(#p7ab34038ed)" style="fill: #ffb86c"/>
   </g>
   <g id="patch_78">
    <path d="M 399.528011 244.989937 
L 402.698466 244.989937 
L 402.698466 244.989937 
L 399.528011 244.989937 
z
" clip-path="url(#p7ab34038ed)" style="fill: #ffb86c"/>
   </g>
   <g id="patch_79">
    <path d="M 431.232557 244.989937 
L 434.403011 244.989937 
L 434.403011 244.989937 
L 431.232557 244.989937 
z
" clip-path="url(#p7ab34038ed)" style="fill: #ffb86c"/>
   </g>
   <g id="patch_80">
    <path d="M 462.937102 244.989937 
L 466.107557 244.989937 
L 466.107557 244.989937 
L 462.937102 244.989937 
z
" clip-path="url(#p7ab34038ed)" style="fill: #ffb86c"/>
   </g>
   <g id="patch_81">
    <path d="M 85.653011 244.989937 
L 88.823466 244.989937 
L 88.823466 244.989937 
L 85.653011 244.989937 
z
" clip-path="url(#p7ab34038ed)" style="fill: #ff79c6"/>
   </g>
   <g id="patch_82">
    <path d="M 117.357557 244.989937 
L 120.528011 244.989937 
L 120.528011 244.989937 
L 117.357557 244.989937 
z
" clip-path="url(#p7ab34038ed)" style="fill: #ff79c6"/>
   </g>
   <g id="patch_83">
    <path d="M 149.062102 244.989937 
L 152.232557 244.989937 
L 152.232557 244.989937 
L 149.062102 244.989937 
z
" clip-path="url(#p7ab34038ed)" style="fill: #ff79c6"/>
   </g>
   <g id="patch_84">
    <path d="M 180.766648 244.989937 
L 183.937102 244.989937 
L 183.937102 244.989937 
L 180.766648 244.989937 
z
" clip-path="url(#p7ab34038ed)" style="fill: #ff79c6"/>
   </g>
   <g id="patch_85">
    <path d="M 212.471193 244.989937 
L 215.641648 244.989937 
L 215.641648 244.989937 
L 212.471193 244.989937 
z
" clip-path="url(#p7ab34038ed)" style="fill: #ff79c6"/>
   </g>
   <g id="patch_86">
    <path d="M 244.175739 244.989937 
L 247.346193 244.989937 
L 247.346193 244.989937 
L 244.175739 244.989937 
z
" clip-path="url(#p7ab34038ed)" style="fill: #ff79c6"/>
   </g>
   <g id="patch_87">
    <path d="M 275.880284 244.989937 
L 279.050739 244.989937 
L 279.050739 244.989937 
L 275.880284 244.989937 
z
" clip-path="url(#p7ab34038ed)" style="fill: #ff79c6"/>
   </g>
   <g id="patch_88">
    <path d="M 307.58483 244.989937 
L 310.755284 244.989937 
L 310.755284 244.989937 
L 307.58483 244.989937 
z
" clip-path="url(#p7ab34038ed)" style="fill: #ff79c6"/>
   </g>
   <g id="patch_89">
    <path d="M 339.289375 244.989937 
L 342.45983 244.989937 
L 342.45983 115.925617 
L 339.289375 115.925617 
z
" clip-path="url(#p7ab34038ed)" style="fill: #ff79c6"/>
   </g>
   <g id="patch_90">
    <path d="M 370.99392 244.989937 
L 374.164375 244.989937 
L 374.164375 244.989937 
L 370.99392 244.989937 
z
" clip-path="url(#p7ab34038ed)" style="fill: #ff79c6"/>
   </g>
   <g id="patch_91">
    <path d="M 402.698466 244.989937 
L 405.86892 244.989937 
L 405.86892 244.989937 
L 402.698466 244.989937 
z
" clip-path="url(#p7ab34038ed)" style="fill: #ff79c6"/>
   </g>
   <g id="patch_92">
    <path d="M 434.403011 244.989937 
L 437.573466 244.989937 
L 437.573466 244.989937 
L 434.403011 244.989937 
z
" clip-path="url(#p7ab34038ed)" style="fill: #ff79c6"/>
   </g>
   <g id="patch_93">
    <path d="M 466.107557 244.989937 
L 469.278011 244.989937 
L 469.278011 244.989937 
L 466.107557 244.989937 
z
" clip-path="url(#p7ab34038ed)" style="fill: #ff79c6"/>
   </g>
   <g id="patch_94">
    <path d="M 88.823466 244.989937 
L 91.99392 244.989937 
L 91.99392 244.989937 
L 88.823466 244.989937 
z
" clip-path="url(#p7ab34038ed)" style="fill: #f1fa8c"/>
   </g>
   <g id="patch_95">
    <path d="M 120.528011 244.989937 
L 123.698466 244.989937 
L 123.698466 244.989937 
L 120.528011 244.989937 
z
" clip-path="url(#p7ab34038ed)" style="fill: #f1fa8c"/>
   </g>
   <g id="patch_96">
    <path d="M 152.232557 244.989937 
L 155.403011 244.989937 
L 155.403011 244.989937 
L 152.232557 244.989937 
z
" clip-path="url(#p7ab34038ed)" style="fill: #f1fa8c"/>
   </g>
   <g id="patch_97">
    <path d="M 183.937102 244.989937 
L 187.107557 244.989937 
L 187.107557 244.989937 
L 183.937102 244.989937 
z
" clip-path="url(#p7ab34038ed)" style="fill: #f1fa8c"/>
   </g>
   <g id="patch_98">
    <path d="M 215.641648 244.989937 
L 218.812102 244.989937 
L 218.812102 244.989937 
L 215.641648 244.989937 
z
" clip-path="url(#p7ab34038ed)" style="fill: #f1fa8c"/>
   </g>
   <g id="patch_99">
    <path d="M 247.346193 244.989937 
L 250.516648 244.989937 
L 250.516648 244.989937 
L 247.346193 244.989937 
z
" clip-path="url(#p7ab34038ed)" style="fill: #f1fa8c"/>
   </g>
   <g id="patch_100">
    <path d="M 279.050739 244.989937 
L 282.221193 244.989937 
L 282.221193 244.989937 
L 279.050739 244.989937 
z
" clip-path="url(#p7ab34038ed)" style="fill: #f1fa8c"/>
   </g>
   <g id="patch_101">
    <path d="M 310.755284 244.989937 
L 313.925739 244.989937 
L 313.925739 244.989937 
L 310.755284 244.989937 
z
" clip-path="url(#p7ab34038ed)" style="fill: #f1fa8c"/>
   </g>
   <g id="patch_102">
    <path d="M 342.45983 244.989937 
L 345.630284 244.989937 
L 345.630284 191.852017 
L 342.45983 191.852017 
z
" clip-path="url(#p7ab34038ed)" style="fill: #f1fa8c"/>
   </g>
   <g id="patch_103">
    <path d="M 374.164375 244.989937 
L 377.33483 244.989937 
L 377.33483 244.989937 
L 374.164375 244.989937 
z
" clip-path="url(#p7ab34038ed)" style="fill: #f1fa8c"/>
   </g>
   <g id="patch_104">
    <path d="M 405.86892 244.989937 
L 409.039375 244.989937 
L 409.039375 244.989937 
L 405.86892 244.989937 
z
" clip-path="url(#p7ab34038ed)" style="fill: #f1fa8c"/>
   </g>
   <g id="patch_105">
    <path d="M 437.573466 244.989937 
L 440.74392 244.989937 
L 440.74392 244.989937 
L 437.573466 244.989937 
z
" clip-path="url(#p7ab34038ed)" style="fill: #f1fa8c"/>
   </g>
   <g id="patch_106">
    <path d="M 469.278011 244.989937 
L 472.448466 244.989937 
L 472.448466 244.989937 
L 469.278011 244.989937 
z
" clip-path="url(#p7ab34038ed)" style="fill: #f1fa8c"/>
   </g>
   <g id="matplotlib.axis_1">
    <g id="xtick_1">
     <g id="line2d_1">
      <path d="M 79.312102 244.989937 
L 79.312102 23.229937 
" clip-path="url(#p7ab34038ed)" style="fill: none; stroke: #44475a; stroke-opacity: 0.5; stroke-width: 0.8; stroke-linecap: square"/>
     </g>
     <g id="line2d_2">
      <defs>
       <path id="m7b664f2903" d="M 0 0 
L 0 3.5 
" style="stroke: #f8f8f2; stroke-width: 0.8"/>
      </defs>
      <g>
       <use xlink:href="#m7b664f2903" x="79.312102" y="244.989937" style="fill: #f8f8f2; stroke: #f8f8f2; stroke-width: 0.8"/>
      </g>
     </g>
     <g id="text_1">
      <text style="font-size: 11px; font-family: 'DejaVu Sans', 'Bitstream Vera Sans', 'Computer Modern Sans Serif', 'Lucida Grande', 'Verdana', 'Geneva', 'Lucid', 'Arial', 'Helvetica', 'Avant Garde', sans-serif; text-anchor: middle; fill: #f8f8f2" x="79.312102" y="260.348219" transform="rotate(-0 79.312102 260.348219)">cargo-001</text>
     </g>
    </g>
    <g id="xtick_2">
     <g id="line2d_3">
      <path d="M 111.016648 244.989937 
L 111.016648 23.229937 
" clip-path="url(#p7ab34038ed)" style="fill: none; stroke: #44475a; stroke-opacity: 0.5; stroke-width: 0.8; stroke-linecap: square"/>
     </g>
     <g id="line2d_4">
      <g>
       <use xlink:href="#m7b664f2903" x="111.016648" y="244.989937" style="fill: #f8f8f2; stroke: #f8f8f2; stroke-width: 0.8"/>
      </g>
     </g>
     <g id="text_2">
      <text style="font-size: 11px; font-family: 'DejaVu Sans', 'Bitstream Vera Sans', 'Computer Modern Sans Serif', 'Lucida Grande', 'Verdana', 'Geneva', 'Lucid', 'Arial', 'Helvetica', 'Avant Garde', sans-serif; text-anchor: middle; fill: #f8f8f2" x="111.016648" y="260.348219" transform="rotate(-0 111.016648 260.348219)">flask-001</text>
     </g>
    </g>
    <g id="xtick_3">
     <g id="line2d_5">
      <path d="M 142.721193 244.989937 
L 142.721193 23.229937 
" clip-path="url(#p7ab34038ed)" style="fill: none; stroke: #44475a; stroke-opacity: 0.5; stroke-width: 0.8; stroke-linecap: square"/>
     </g>
     <g id="line2d_6">
      <g>
       <use xlink:href="#m7b664f2903" x="142.721193" y="244.989937" style="fill: #f8f8f2; stroke: #f8f8f2; stroke-width: 0.8"/>
      </g>
     </g>
     <g id="text_3">
      <text style="font-size: 11px; font-family: 'DejaVu Sans', 'Bitstream Vera Sans', 'Computer Modern Sans Serif', 'Lucida Grande', 'Verdana', 'Geneva', 'Lucid', 'Arial', 'Helvetica', 'Avant Garde', sans-serif; text-anchor: middle; fill: #f8f8f2" x="142.721193" y="260.348219" transform="rotate(-0 142.721193 260.348219)">flask-002</text>
     </g>
    </g>
    <g id="xtick_4">
     <g id="line2d_7">
      <path d="M 174.425739 244.989937 
L 174.425739 23.229937 
" clip-path="url(#p7ab34038ed)" style="fill: none; stroke: #44475a; stroke-opacity: 0.5; stroke-width: 0.8; stroke-linecap: square"/>
     </g>
     <g id="line2d_8">
      <g>
       <use xlink:href="#m7b664f2903" x="174.425739" y="244.989937" style="fill: #f8f8f2; stroke: #f8f8f2; stroke-width: 0.8"/>
      </g>
     </g>
     <g id="text_4">
      <text style="font-size: 11px; font-family: 'DejaVu Sans', 'Bitstream Vera Sans', 'Computer Modern Sans Serif', 'Lucida Grande', 'Verdana', 'Geneva', 'Lucid', 'Arial', 'Helvetica', 'Avant Garde', sans-serif; text-anchor: middle; fill: #f8f8f2" x="174.425739" y="260.348219" transform="rotate(-0 174.425739 260.348219)">flask-003</text>
     </g>
    </g>
    <g id="xtick_5">
     <g id="line2d_9">
      <path d="M 206.130284 244.989937 
L 206.130284 23.229937 
" clip-path="url(#p7ab34038ed)" style="fill: none; stroke: #44475a; stroke-opacity: 0.5; stroke-width: 0.8; stroke-linecap: square"/>
     </g>
     <g id="line2d_10">
      <g>
       <use xlink:href="#m7b664f2903" x="206.130284" y="244.989937" style="fill: #f8f8f2; stroke: #f8f8f2; stroke-width: 0.8"/>
      </g>
     </g>
     <g id="text_5">
      <text style="font-size: 11px; font-family: 'DejaVu Sans', 'Bitstream Vera Sans', 'Computer Modern Sans Serif', 'Lucida Grande', 'Verdana', 'Geneva', 'Lucid', 'Arial', 'Helvetica', 'Avant Garde', sans-serif; text-anchor: middle; fill: #f8f8f2" x="206.130284" y="260.348219" transform="rotate(-0 206.130284 260.348219)">flask-004</text>
     </g>
    </g>
    <g id="xtick_6">
     <g id="line2d_11">
      <path d="M 237.83483 244.989937 
L 237.83483 23.229937 
" clip-path="url(#p7ab34038ed)" style="fill: none; stroke: #44475a; stroke-opacity: 0.5; stroke-width: 0.8; stroke-linecap: square"/>
     </g>
     <g id="line2d_12">
      <g>
       <use xlink:href="#m7b664f2903" x="237.83483" y="244.989937" style="fill: #f8f8f2; stroke: #f8f8f2; stroke-width: 0.8"/>
      </g>
     </g>
     <g id="text_6">
      <text style="font-size: 11px; font-family: 'DejaVu Sans', 'Bitstream Vera Sans', 'Computer Modern Sans Serif', 'Lucida Grande', 'Verdana', 'Geneva', 'Lucid', 'Arial', 'Helvetica', 'Avant Garde', sans-serif; text-anchor: middle; fill: #f8f8f2" x="237.83483" y="260.348219" transform="rotate(-0 237.83483 260.348219)">flask-005</text>
     </g>
    </g>
    <g id="xtick_7">
     <g id="line2d_13">
      <path d="M 269.539375 244.989937 
L 269.539375 23.229937 
" clip-path="url(#p7ab34038ed)" style="fill: none; stroke: #44475a; stroke-opacity: 0.5; stroke-width: 0.8; stroke-linecap: square"/>
     </g>
     <g id="line2d_14">
      <g>
       <use xlink:href="#m7b664f2903" x="269.539375" y="244.989937" style="fill: #f8f8f2; stroke: #f8f8f2; stroke-width: 0.8"/>
      </g>
     </g>
     <g id="text_7">
      <text style="font-size: 11px; font-family: 'DejaVu Sans', 'Bitstream Vera Sans', 'Computer Modern Sans Serif', 'Lucida Grande', 'Verdana', 'Geneva', 'Lucid', 'Arial', 'Helvetica', 'Avant Garde', sans-serif; text-anchor: middle; fill: #f8f8f2" x="269.539375" y="260.348219" transform="rotate(-0 269.539375 260.348219)">polars-004</text>
     </g>
    </g>
    <g id="xtick_8">
     <g id="line2d_15">
      <path d="M 301.24392 244.989937 
L 301.24392 23.229937 
" clip-path="url(#p7ab34038ed)" style="fill: none; stroke: #44475a; stroke-opacity: 0.5; stroke-width: 0.8; stroke-linecap: square"/>
     </g>
     <g id="line2d_16">
      <g>
       <use xlink:href="#m7b664f2903" x="301.24392" y="244.989937" style="fill: #f8f8f2; stroke: #f8f8f2; stroke-width: 0.8"/>
      </g>
     </g>
     <g id="text_8">
      <text style="font-size: 11px; font-family: 'DejaVu Sans', 'Bitstream Vera Sans', 'Computer Modern Sans Serif', 'Lucida Grande', 'Verdana', 'Geneva', 'Lucid', 'Arial', 'Helvetica', 'Avant Garde', sans-serif; text-anchor: middle; fill: #f8f8f2" x="301.24392" y="260.348219" transform="rotate(-0 301.24392 260.348219)">polars-005</text>
     </g>
    </g>
    <g id="xtick_9">
     <g id="line2d_17">
      <path d="M 332.948466 244.989937 
L 332.948466 23.229937 
" clip-path="url(#p7ab34038ed)" style="fill: none; stroke: #44475a; stroke-opacity: 0.5; stroke-width: 0.8; stroke-linecap: square"/>
     </g>
     <g id="line2d_18">
      <g>
       <use xlink:href="#m7b664f2903" x="332.948466" y="244.989937" style="fill: #f8f8f2; stroke: #f8f8f2; stroke-width: 0.8"/>
      </g>
     </g>
     <g id="text_9">
      <text style="font-size: 11px; font-family: 'DejaVu Sans', 'Bitstream Vera Sans', 'Computer Modern Sans Serif', 'Lucida Grande', 'Verdana', 'Geneva', 'Lucid', 'Arial', 'Helvetica', 'Avant Garde', sans-serif; text-anchor: middle; fill: #f8f8f2" x="332.948466" y="260.348219" transform="rotate(-0 332.948466 260.348219)">ruff-001</text>
     </g>
    </g>
    <g id="xtick_10">
     <g id="line2d_19">
      <path d="M 364.653011 244.989937 
L 364.653011 23.229937 
" clip-path="url(#p7ab34038ed)" style="fill: none; stroke: #44475a; stroke-opacity: 0.5; stroke-width: 0.8; stroke-linecap: square"/>
     </g>
     <g id="line2d_20">
      <g>
       <use xlink:href="#m7b664f2903" x="364.653011" y="244.989937" style="fill: #f8f8f2; stroke: #f8f8f2; stroke-width: 0.8"/>
      </g>
     </g>
     <g id="text_10">
      <text style="font-size: 11px; font-family: 'DejaVu Sans', 'Bitstream Vera Sans', 'Computer Modern Sans Serif', 'Lucida Grande', 'Verdana', 'Geneva', 'Lucid', 'Arial', 'Helvetica', 'Avant Garde', sans-serif; text-anchor: middle; fill: #f8f8f2" x="364.653011" y="260.348219" transform="rotate(-0 364.653011 260.348219)">ruff-002</text>
     </g>
    </g>
    <g id="xtick_11">
     <g id="line2d_21">
      <path d="M 396.357557 244.989937 
L 396.357557 23.229937 
" clip-path="url(#p7ab34038ed)" style="fill: none; stroke: #44475a; stroke-opacity: 0.5; stroke-width: 0.8; stroke-linecap: square"/>
     </g>
     <g id="line2d_22">
      <g>
       <use xlink:href="#m7b664f2903" x="396.357557" y="244.989937" style="fill: #f8f8f2; stroke: #f8f8f2; stroke-width: 0.8"/>
      </g>
     </g>
     <g id="text_11">
      <text style="font-size: 11px; font-family: 'DejaVu Sans', 'Bitstream Vera Sans', 'Computer Modern Sans Serif', 'Lucida Grande', 'Verdana', 'Geneva', 'Lucid', 'Arial', 'Helvetica', 'Avant Garde', sans-serif; text-anchor: middle; fill: #f8f8f2" x="396.357557" y="260.348219" transform="rotate(-0 396.357557 260.348219)">ruff-003</text>
     </g>
    </g>
    <g id="xtick_12">
     <g id="line2d_23">
      <path d="M 428.062102 244.989937 
L 428.062102 23.229937 
" clip-path="url(#p7ab34038ed)" style="fill: none; stroke: #44475a; stroke-opacity: 0.5; stroke-width: 0.8; stroke-linecap: square"/>
     </g>
     <g id="line2d_24">
      <g>
       <use xlink:href="#m7b664f2903" x="428.062102" y="244.989937" style="fill: #f8f8f2; stroke: #f8f8f2; stroke-width: 0.8"/>
      </g>
     </g>
     <g id="text_12">
      <text style="font-size: 11px; font-family: 'DejaVu Sans', 'Bitstream Vera Sans', 'Computer Modern Sans Serif', 'Lucida Grande', 'Verdana', 'Geneva', 'Lucid', 'Arial', 'Helvetica', 'Avant Garde', sans-serif; text-anchor: middle; fill: #f8f8f2" x="428.062102" y="260.348219" transform="rotate(-0 428.062102 260.348219)">ruff-004</text>
     </g>
    </g>
    <g id="xtick_13">
     <g id="line2d_25">
      <path d="M 459.766648 244.989937 
L 459.766648 23.229937 
" clip-path="url(#p7ab34038ed)" style="fill: none; stroke: #44475a; stroke-opacity: 0.5; stroke-width: 0.8; stroke-linecap: square"/>
     </g>
     <g id="line2d_26">
      <g>
       <use xlink:href="#m7b664f2903" x="459.766648" y="244.989937" style="fill: #f8f8f2; stroke: #f8f8f2; stroke-width: 0.8"/>
      </g>
     </g>
     <g id="text_13">
      <text style="font-size: 11px; font-family: 'DejaVu Sans', 'Bitstream Vera Sans', 'Computer Modern Sans Serif', 'Lucida Grande', 'Verdana', 'Geneva', 'Lucid', 'Arial', 'Helvetica', 'Avant Garde', sans-serif; text-anchor: middle; fill: #f8f8f2" x="459.766648" y="260.348219" transform="rotate(-0 459.766648 260.348219)">ruff-005</text>
     </g>
    </g>
   </g>
   <g id="matplotlib.axis_2">
    <g id="ytick_1">
     <g id="line2d_27">
      <path d="M 46.339375 244.989937 
L 492.739375 244.989937 
" clip-path="url(#p7ab34038ed)" style="fill: none; stroke: #44475a; stroke-opacity: 0.5; stroke-width: 0.8; stroke-linecap: square"/>
     </g>
     <g id="line2d_28">
      <defs>
       <path id="mfa140a15fc" d="M 0 0 
L -3.5 0 
" style="stroke: #f8f8f2; stroke-width: 0.8"/>
      </defs>
      <g>
       <use xlink:href="#mfa140a15fc" x="46.339375" y="244.989937" style="fill: #f8f8f2; stroke: #f8f8f2; stroke-width: 0.8"/>
      </g>
     </g>
     <g id="text_14">
      <text style="font-size: 11px; font-family: 'DejaVu Sans', 'Bitstream Vera Sans', 'Computer Modern Sans Serif', 'Lucida Grande', 'Verdana', 'Geneva', 'Lucid', 'Arial', 'Helvetica', 'Avant Garde', sans-serif; text-anchor: end; fill: #f8f8f2" x="39.339375" y="249.169078" transform="rotate(-0 39.339375 249.169078)">0.0</text>
     </g>
    </g>
    <g id="ytick_2">
     <g id="line2d_29">
      <path d="M 46.339375 202.749937 
L 492.739375 202.749937 
" clip-path="url(#p7ab34038ed)" style="fill: none; stroke: #44475a; stroke-opacity: 0.5; stroke-width: 0.8; stroke-linecap: square"/>
     </g>
     <g id="line2d_30">
      <g>
       <use xlink:href="#mfa140a15fc" x="46.339375" y="202.749937" style="fill: #f8f8f2; stroke: #f8f8f2; stroke-width: 0.8"/>
      </g>
     </g>
     <g id="text_15">
      <text style="font-size: 11px; font-family: 'DejaVu Sans', 'Bitstream Vera Sans', 'Computer Modern Sans Serif', 'Lucida Grande', 'Verdana', 'Geneva', 'Lucid', 'Arial', 'Helvetica', 'Avant Garde', sans-serif; text-anchor: end; fill: #f8f8f2" x="39.339375" y="206.929078" transform="rotate(-0 39.339375 206.929078)">0.2</text>
     </g>
    </g>
    <g id="ytick_3">
     <g id="line2d_31">
      <path d="M 46.339375 160.509937 
L 492.739375 160.509937 
" clip-path="url(#p7ab34038ed)" style="fill: none; stroke: #44475a; stroke-opacity: 0.5; stroke-width: 0.8; stroke-linecap: square"/>
     </g>
     <g id="line2d_32">
      <g>
       <use xlink:href="#mfa140a15fc" x="46.339375" y="160.509937" style="fill: #f8f8f2; stroke: #f8f8f2; stroke-width: 0.8"/>
      </g>
     </g>
     <g id="text_16">
      <text style="font-size: 11px; font-family: 'DejaVu Sans', 'Bitstream Vera Sans', 'Computer Modern Sans Serif', 'Lucida Grande', 'Verdana', 'Geneva', 'Lucid', 'Arial', 'Helvetica', 'Avant Garde', sans-serif; text-anchor: end; fill: #f8f8f2" x="39.339375" y="164.689078" transform="rotate(-0 39.339375 164.689078)">0.4</text>
     </g>
    </g>
    <g id="ytick_4">
     <g id="line2d_33">
      <path d="M 46.339375 118.269937 
L 492.739375 118.269937 
" clip-path="url(#p7ab34038ed)" style="fill: none; stroke: #44475a; stroke-opacity: 0.5; stroke-width: 0.8; stroke-linecap: square"/>
     </g>
     <g id="line2d_34">
      <g>
       <use xlink:href="#mfa140a15fc" x="46.339375" y="118.269937" style="fill: #f8f8f2; stroke: #f8f8f2; stroke-width: 0.8"/>
      </g>
     </g>
     <g id="text_17">
      <text style="font-size: 11px; font-family: 'DejaVu Sans', 'Bitstream Vera Sans', 'Computer Modern Sans Serif', 'Lucida Grande', 'Verdana', 'Geneva', 'Lucid', 'Arial', 'Helvetica', 'Avant Garde', sans-serif; text-anchor: end; fill: #f8f8f2" x="39.339375" y="122.449078" transform="rotate(-0 39.339375 122.449078)">0.6</text>
     </g>
    </g>
    <g id="ytick_5">
     <g id="line2d_35">
      <path d="M 46.339375 76.029937 
L 492.739375 76.029937 
" clip-path="url(#p7ab34038ed)" style="fill: none; stroke: #44475a; stroke-opacity: 0.5; stroke-width: 0.8; stroke-linecap: square"/>
     </g>
     <g id="line2d_36">
      <g>
       <use xlink:href="#mfa140a15fc" x="46.339375" y="76.029937" style="fill: #f8f8f2; stroke: #f8f8f2; stroke-width: 0.8"/>
      </g>
     </g>
     <g id="text_18">
      <text style="font-size: 11px; font-family: 'DejaVu Sans', 'Bitstream Vera Sans', 'Computer Modern Sans Serif', 'Lucida Grande', 'Verdana', 'Geneva', 'Lucid', 'Arial', 'Helvetica', 'Avant Garde', sans-serif; text-anchor: end; fill: #f8f8f2" x="39.339375" y="80.209078" transform="rotate(-0 39.339375 80.209078)">0.8</text>
     </g>
    </g>
    <g id="ytick_6">
     <g id="line2d_37">
      <path d="M 46.339375 33.789937 
L 492.739375 33.789937 
" clip-path="url(#p7ab34038ed)" style="fill: none; stroke: #44475a; stroke-opacity: 0.5; stroke-width: 0.8; stroke-linecap: square"/>
     </g>
     <g id="line2d_38">
      <g>
       <use xlink:href="#mfa140a15fc" x="46.339375" y="33.789937" style="fill: #f8f8f2; stroke: #f8f8f2; stroke-width: 0.8"/>
      </g>
     </g>
     <g id="text_19">
      <text style="font-size: 11px; font-family: 'DejaVu Sans', 'Bitstream Vera Sans', 'Computer Modern Sans Serif', 'Lucida Grande', 'Verdana', 'Geneva', 'Lucid', 'Arial', 'Helvetica', 'Avant Garde', sans-serif; text-anchor: end; fill: #f8f8f2" x="39.339375" y="37.969078" transform="rotate(-0 39.339375 37.969078)">1.0</text>
     </g>
    </g>
    <g id="text_20">
     <text style="font-size: 11px; font-family: 'DejaVu Sans', 'Bitstream Vera Sans', 'Computer Modern Sans Serif', 'Lucida Grande', 'Verdana', 'Geneva', 'Lucid', 'Arial', 'Helvetica', 'Avant Garde', sans-serif; text-anchor: middle; fill: #f8f8f2" x="15.558281" y="134.109937" transform="rotate(-90 15.558281 134.109937)">Score</text>
    </g>
   </g>
   <g id="patch_107">
    <path d="M 46.339375 244.989937 
L 46.339375 23.229937 
" style="fill: none; stroke: #6272a4; stroke-width: 0.8; stroke-linejoin: miter; stroke-linecap: square"/>
   </g>
   <g id="patch_108">
    <path d="M 492.739375 244.989937 
L 492.739375 23.229937 
" style="fill: none; stroke: #6272a4; stroke-width: 0.8; stroke-linejoin: miter; stroke-linecap: square"/>
   </g>
   <g id="patch_109">
    <path d="M 46.339375 244.989937 
L 492.739375 244.989937 
" style="fill: none; stroke: #6272a4; stroke-width: 0.8; stroke-linejoin: miter; stroke-linecap: square"/>
   </g>
   <g id="patch_110">
    <path d="M 46.339375 23.229937 
L 492.739375 23.229937 
" style="fill: none; stroke: #6272a4; stroke-width: 0.8; stroke-linejoin: miter; stroke-linecap: square"/>
   </g>
   <g id="text_21">
    <text style="font-size: 13.2px; font-family: 'DejaVu Sans', 'Bitstream Vera Sans', 'Computer Modern Sans Serif', 'Lucida Grande', 'Verdana', 'Geneva', 'Lucid', 'Arial', 'Helvetica', 'Avant Garde', sans-serif; text-anchor: middle; fill: #f8f8f2" x="269.539375" y="17.229937" transform="rotate(-0 269.539375 17.229937)">F1 Score Comparison</text>
   </g>
   <g id="legend_1">
    <g id="patch_111">
     <path d="M 54.039375 163.033062 
L 284.155938 163.033062 
Q 286.355938 163.033062 286.355938 160.833062 
L 286.355938 30.929937 
Q 286.355938 28.729937 284.155938 28.729937 
L 54.039375 28.729937 
Q 51.839375 28.729937 51.839375 30.929937 
L 51.839375 160.833062 
Q 51.839375 163.033062 54.039375 163.033062 
z
" style="fill: #44475a; opacity: 0.8; stroke: #6272a4; stroke-linejoin: miter"/>
    </g>
    <g id="patch_112">
     <path d="M 56.239375 41.488219 
L 78.239375 41.488219 
L 78.239375 33.788219 
L 56.239375 33.788219 
z
" style="fill: #bd93f9"/>
    </g>
    <g id="text_22">
     <text style="font-size: 11px; font-family: 'DejaVu Sans', 'Bitstream Vera Sans', 'Computer Modern Sans Serif', 'Lucida Grande', 'Verdana', 'Geneva', 'Lucid', 'Arial', 'Helvetica', 'Avant Garde', sans-serif; text-anchor: start; fill: #f8f8f2" x="87.039375" y="41.488219" transform="rotate(-0 87.039375 41.488219)">no-bobbin</text>
    </g>
    <g id="patch_113">
     <path d="M 56.239375 57.634156 
L 78.239375 57.634156 
L 78.239375 49.934156 
L 56.239375 49.934156 
z
" style="fill: #50fa7b"/>
    </g>
    <g id="text_23">
     <text style="font-size: 11px; font-family: 'DejaVu Sans', 'Bitstream Vera Sans', 'Computer Modern Sans Serif', 'Lucida Grande', 'Verdana', 'Geneva', 'Lucid', 'Arial', 'Helvetica', 'Avant Garde', sans-serif; text-anchor: start; fill: #f8f8f2" x="87.039375" y="57.634156" transform="rotate(-0 87.039375 57.634156)">with-bobbin</text>
    </g>
    <g id="patch_114">
     <path d="M 56.239375 73.780094 
L 78.239375 73.780094 
L 78.239375 66.080094 
L 56.239375 66.080094 
z
" style="fill: #ff79c6"/>
    </g>
    <g id="text_24">
     <text style="font-size: 11px; font-family: 'DejaVu Sans', 'Bitstream Vera Sans', 'Computer Modern Sans Serif', 'Lucida Grande', 'Verdana', 'Geneva', 'Lucid', 'Arial', 'Helvetica', 'Avant Garde', sans-serif; text-anchor: start; fill: #f8f8f2" x="87.039375" y="73.780094" transform="rotate(-0 87.039375 73.780094)">with-bobbin+blame_bridging=false</text>
    </g>
    <g id="patch_115">
     <path d="M 56.239375 90.231969 
L 78.239375 90.231969 
L 78.239375 82.531969 
L 56.239375 82.531969 
z
" style="fill: #f1fa8c"/>
    </g>
    <g id="text_25">
     <text style="font-size: 11px; font-family: 'DejaVu Sans', 'Bitstream Vera Sans', 'Computer Modern Sans Serif', 'Lucida Grande', 'Verdana', 'Geneva', 'Lucid', 'Arial', 'Helvetica', 'Avant Garde', sans-serif; text-anchor: start; fill: #f8f8f2" x="87.039375" y="90.231969" transform="rotate(-0 87.039375 90.231969)">with-bobbin+coupling_depth=0</text>
    </g>
    <g id="patch_116">
     <path d="M 56.239375 106.683844 
L 78.239375 106.683844 
L 78.239375 98.983844 
L 56.239375 98.983844 
z
" style="fill: #8be9fd"/>
    </g>
    <g id="text_26">
     <text style="font-size: 11px; font-family: 'DejaVu Sans', 'Bitstream Vera Sans', 'Computer Modern Sans Serif', 'Lucida Grande', 'Verdana', 'Geneva', 'Lucid', 'Arial', 'Helvetica', 'Avant Garde', sans-serif; text-anchor: start; fill: #f8f8f2" x="87.039375" y="106.683844" transform="rotate(-0 87.039375 106.683844)">with-bobbin+doc_demotion=0.0</text>
    </g>
    <g id="patch_117">
     <path d="M 56.239375 123.135719 
L 78.239375 123.135719 
L 78.239375 115.435719 
L 56.239375 115.435719 
z
" style="fill: #ffb86c"/>
    </g>
    <g id="text_27">
     <text style="font-size: 11px; font-family: 'DejaVu Sans', 'Bitstream Vera Sans', 'Computer Modern Sans Serif', 'Lucida Grande', 'Verdana', 'Geneva', 'Lucid', 'Arial', 'Helvetica', 'Avant Garde', sans-serif; text-anchor: start; fill: #f8f8f2" x="87.039375" y="123.135719" transform="rotate(-0 87.039375 123.135719)">with-bobbin+gate_threshold=1.0</text>
    </g>
    <g id="patch_118">
     <path d="M 56.239375 139.587594 
L 78.239375 139.587594 
L 78.239375 131.887594 
L 56.239375 131.887594 
z
" style="fill: #ff79c6"/>
    </g>
    <g id="text_28">
     <text style="font-size: 11px; font-family: 'DejaVu Sans', 'Bitstream Vera Sans', 'Computer Modern Sans Serif', 'Lucida Grande', 'Verdana', 'Geneva', 'Lucid', 'Arial', 'Helvetica', 'Avant Garde', sans-serif; text-anchor: start; fill: #f8f8f2" x="87.039375" y="139.587594" transform="rotate(-0 87.039375 139.587594)">with-bobbin+recency_weight=0.0</text>
    </g>
    <g id="patch_119">
     <path d="M 56.239375 156.039469 
L 78.239375 156.039469 
L 78.239375 148.339469 
L 56.239375 148.339469 
z
" style="fill: #f1fa8c"/>
    </g>
    <g id="text_29">
     <text style="font-size: 11px; font-family: 'DejaVu Sans', 'Bitstream Vera Sans', 'Computer Modern Sans Serif', 'Lucida Grande', 'Verdana', 'Geneva', 'Lucid', 'Arial', 'Helvetica', 'Avant Garde', sans-serif; text-anchor: start; fill: #f8f8f2" x="87.039375" y="156.039469" transform="rotate(-0 87.039375 156.039469)">with-bobbin+semantic_weight=0.0</text>
    </g>
   </g>
  </g>
 </g>
 <defs>
  <clipPath id="p7ab34038ed">
   <rect x="46.339375" y="23.229937" width="446.4" height="221.76"/>
  </clipPath>
 </defs>
</svg>
