<?xml version="1.0" encoding="utf-8" standalone="no"?>
<!DOCTYPE svg PUBLIC "-//W3C//DTD SVG 1.1//EN"
  "http://www.w3.org/Graphics/SVG/1.1/DTD/svg11.dtd">
<svg xmlns:xlink="http://www.w3.org/1999/xlink" width="576pt" height="360pt" viewBox="0 0 576 360" xmlns="http://www.w3.org/2000/svg" version="1.1">
 <metadata>
  <rdf:RDF xmlns:dc="http://purl.org/dc/elements/1.1/" xmlns:cc="http://creativecommons.org/ns#" xmlns:rdf="http://www.w3.org/1999/02/22-rdf-syntax-ns#">
   <cc:Work>
    <dc:type rdf:resource="http://purl.org/dc/dcmitype/StillImage"/>
    <dc:date>2026-03-02T20:25:09.220412</dc:date>
    <dc:format>image/svg+xml</dc:format>
    <dc:creator>
     <cc:Agent>
      <dc:title>Matplotlib v3.10.8, https://matplotlib.org/</dc:title>
     </cc:Agent>
    </dc:creator>
   </cc:Work>
  </rdf:RDF>
 </metadata>
 <defs>
  <style type="text/css">*{stroke-linejoin: round; stroke-linecap: butt}</style>
 </defs>
 <g id="figure_1">
  <g id="patch_1">
   <path d="M 0 360 
L 576 360 
L 576 0 
L 0 0 
z
" style="fill: #282a36"/>
  </g>
  <g id="axes_1">
   <g id="patch_2">
    <path d="M 51.14 315.52 
L 564.12 315.52 
L 564.12 27.96 
L 51.14 27.96 
z
" style="fill: #282a36"/>
   </g>
   <g id="matplotlib.axis_1">
    <g id="xtick_1">
     <g id="line2d_1">
      <path d="M 74.457273 315.52 
L 74.457273 27.96 
" clip-path="url(#p0e67873440)" style="fill: none; stroke: #44475a; stroke-opacity: 0.5; stroke-width: 0.8; stroke-linecap: square"/>
     </g>
     <g id="line2d_2">
      <defs>
       <path id="m0b61b4b4db" d="M 0 0 
L 0 3.5 
" style="stroke: #f8f8f2; stroke-width: 0.8"/>
      </defs>
      <g>
       <use xlink:href="#m0b61b4b4db" x="74.457273" y="315.52" style="fill: #f8f8f2; stroke: #f8f8f2; stroke-width: 0.8"/>
      </g>
     </g>
     <g id="text_1">
      <text style="font-size: 11px; font-family: 'DejaVu Sans', 'Bitstream Vera Sans', 'Computer Modern Sans Serif', 'Lucida Grande', 'Verdana', 'Geneva', 'Lucid', 'Arial', 'Helvetica', 'Avant Garde', sans-serif; text-anchor: middle; fill: #f8f8f2" x="74.457273" y="330.878281" transform="rotate(-0 74.457273 330.878281)">0.0</text>
     </g>
    </g>
    <g id="xtick_2">
     <g id="line2d_3">
      <path d="M 167.726364 315.52 
L 167.726364 27.96 
" clip-path="url(#p0e67873440)" style="fill: none; stroke: #44475a; stroke-opacity: 0.5; stroke-width: 0.8; stroke-linecap: square"/>
     </g>
     <g id="line2d_4">
      <g>
       <use xlink:href="#m0b61b4b4db" x="167.726364" y="315.52" style="fill: #f8f8f2; stroke: #f8f8f2; stroke-width: 0.8"/>
      </g>
     </g>
     <g id="text_2">
      <text style="font-size: 11px; font-family: 'DejaVu Sans', 'Bitstream Vera Sans', 'Computer Modern Sans Serif', 'Lucida Grande', 'Verdana', 'Geneva', 'Lucid', 'Arial', 'Helvetica', 'Avant Garde', sans-serif; text-anchor: middle; fill: #f8f8f2" x="167.726364" y="330.878281" transform="rotate(-0 167.726364 330.878281)">0.1</text>
     </g>
    </g>
    <g id="xtick_3">
     <g id="line2d_5">
      <path d="M 260.995455 315.52 
L 260.995455 27.96 
" clip-path="url(#p0e67873440)" style="fill: none; stroke: #44475a; stroke-opacity: 0.5; stroke-width: 0.8; stroke-linecap: square"/>
     </g>
     <g id="line2d_6">
      <g>
       <use xlink:href="#m0b61b4b4db" x="260.995455" y="315.52" style="fill: #f8f8f2; stroke: #f8f8f2; stroke-width: 0.8"/>
      </g>
     </g>
     <g id="text_3">
      <text style="font-size: 11px; font-family: 'DejaVu Sans', 'Bitstream Vera Sans', 'Computer Modern Sans Serif', 'Lucida Grande', 'Verdana', 'Geneva', 'Lucid', 'Arial', 'Helvetica', 'Avant Garde', sans-serif; text-anchor: middle; fill: #f8f8f2" x="260.995455" y="330.878281" transform="rotate(-0 260.995455 330.878281)">0.2</text>
     </g>
    </g>
    <g id="xtick_4">
     <g id="line2d_7">
      <path d="M 354.264545 315.52 
L 354.264545 27.96 
" clip-path="url(#p0e67873440)" style="fill: none; stroke: #44475a; stroke-opacity: 0.5; stroke-width: 0.8; stroke-linecap: square"/>
     </g>
     <g id="line2d_8">
      <g>
       <use xlink:href="#m0b61b4b4db" x="354.264545" y="315.52" style="fill: #f8f8f2; stroke: #f8f8f2; stroke-width: 0.8"/>
      </g>
     </g>
     <g id="text_4">
      <text style="font-size: 11px; font-family: 'DejaVu Sans', 'Bitstream Vera Sans', 'Computer Modern Sans Serif', 'Lucida Grande', 'Verdana', 'Geneva', 'Lucid', 'Arial', 'Helvetica', 'Avant Garde', sans-serif; text-anchor: middle; fill: #f8f8f2" x="354.264545" y="330.878281" transform="rotate(-0 354.264545 330.878281)">0.3</text>
     </g>
    </g>
    <g id="xtick_5">
     <g id="line2d_9">
      <path d="M 447.533636 315.52 
L 447.533636 27.96 
" clip-path="url(#p0e67873440)" style="fill: none; stroke: #44475a; stroke-opacity: 0.5; stroke-width: 0.8; stroke-linecap: square"/>
     </g>
     <g id="line2d_10">
      <g>
       <use xlink:href="#m0b61b4b4db" x="447.533636" y="315.52" style="fill: #f8f8f2; stroke: #f8f8f2; stroke-width: 0.8"/>
      </g>
     </g>
     <g id="text_5">
      <text style="font-size: 11px; font-family: 'DejaVu Sans', 'Bitstream Vera Sans', 'Computer Modern Sans Serif', 'Lucida Grande', 'Verdana', 'Geneva', 'Lucid', 'Arial', 'Helvetica', 'Avant Garde', sans-serif; text-anchor: middle; fill: #f8f8f2" x="447.533636" y="330.878281" transform="rotate(-0 447.533636 330.878281)">0.4</text>
     </g>
    </g>
    <g id="xtick_6">
     <g id="line2d_11">
      <path d="M 540.802727 315.52 
L 540.802727 27.96 
" clip-path="url(#p0e67873440)" style="fill: none; stroke: #44475a; stroke-opacity: 0.5; stroke-width: 0.8; stroke-linecap: square"/>
     </g>
     <g id="line2d_12">
      <g>
       <use xlink:href="#m0b61b4b4db" x="540.802727" y="315.52" style="fill: #f8f8f2; stroke: #f8f8f2; stroke-width: 0.8"/>
      </g>
     </g>
     <g id="text_6">
      <text style="font-size: 11px; font-family: 'DejaVu Sans', 'Bitstream Vera Sans', 'Computer Modern Sans Serif', 'Lucida Grande', 'Verdana', 'Geneva', 'Lucid', 'Arial', 'Helvetica', 'Avant Garde', sans-serif; text-anchor: middle; fill: #f8f8f2" x="540.802727" y="330.878281" transform="rotate(-0 540.802727 330.878281)">0.5</text>
     </g>
    </g>
    <g id="text_7">
     <text style="font-size: 11px; font-family: 'DejaVu Sans', 'Bitstream Vera Sans', 'Computer Modern Sans Serif', 'Lucida Grande', 'Verdana', 'Geneva', 'Lucid', 'Arial', 'Helvetica', 'Avant Garde', sans-serif; text-anchor: middle; fill: #f8f8f2" x="307.63" y="345.524219" transform="rotate(-0 307.63 345.524219)">Recency Weight</text>
    </g>
   </g>
   <g id="matplotlib.axis_2">
    <g id="ytick_1">
     <g id="line2d_13">
      <path d="M 51.14 309.99 
L 564.12 309.99 
" clip-path="url(#p0e67873440)" style="fill: none; stroke: #44475a; stroke-opacity: 0.5; stroke-width: 0.8; stroke-linecap: square"/>
     </g>
     <g id="line2d_14">
      <defs>
       <path id="m09b81762e1" d="M 0 0 
L -3.5 0 
" style="stroke: #f8f8f2; stroke-width: 0.8"/>
      </defs>
      <g>
       <use xlink:href="#m09b81762e1" x="51.14" y="309.99" style="fill: #f8f8f2; stroke: #f8f8f2; stroke-width: 0.8"/>
      </g>
     </g>
     <g id="text_8">
      <text style="font-size: 11px; font-family: 'DejaVu Sans', 'Bitstream Vera Sans', 'Computer Modern Sans Serif', 'Lucida Grande', 'Verdana', 'Geneva', 'Lucid', 'Arial', 'Helvetica', 'Avant Garde', sans-serif; text-anchor: end; fill: #f8f8f2" x="44.14" y="314.169141" transform="rotate(-0 44.14 314.169141)">0.0</text>
     </g>
    </g>
    <g id="ytick_2">
     <g id="line2d_15">
      <path d="M 51.14 254.69 
L 564.12 254.69 
" clip-path="url(#p0e67873440)" style="fill: none; stroke: #44475a; stroke-opacity: 0.5; stroke-width: 0.8; stroke-linecap: square"/>
     </g>
     <g id="line2d_16">
      <g>
       <use xlink:href="#m09b81762e1" x="51.14" y="254.69" style="fill: #f8f8f2; stroke: #f8f8f2; stroke-width: 0.8"/>
      </g>
     </g>
     <g id="text_9">
      <text style="font-size: 11px; font-family: 'DejaVu Sans', 'Bitstream Vera Sans', 'Computer Modern Sans Serif', 'Lucida Grande', 'Verdana', 'Geneva', 'Lucid', 'Arial', 'Helvetica', 'Avant Garde', sans-serif; text-anchor: end; fill: #f8f8f2" x="44.14" y="258.869141" transform="rotate(-0 44.14 258.869141)">0.2</text>
     </g>
    </g>
    <g id="ytick_3">
     <g id="line2d_17">
      <path d="M 51.14 199.39 
L 564.12 199.39 
" clip-path="url(#p0e67873440)" style="fill: none; stroke: #44475a; stroke-opacity: 0.5; stroke-width: 0.8; stroke-linecap: square"/>
     </g>
     <g id="line2d_18">
      <g>
       <use xlink:href="#m09b81762e1" x="51.14" y="199.39" style="fill: #f8f8f2; stroke: #f8f8f2; stroke-width: 0.8"/>
      </g>
     </g>
     <g id="text_10">
      <text style="font-size: 11px; font-family: 'DejaVu Sans', 'Bitstream Vera Sans', 'Computer Modern Sans Serif', 'Lucida Grande', 'Verdana', 'Geneva', 'Lucid', 'Arial', 'Helvetica', 'Avant Garde', sans-serif; text-anchor: end; fill: #f8f8f2" x="44.14" y="203.569141" transform="rotate(-0 44.14 203.569141)">0.4</text>
     </g>
    </g>
    <g id="ytick_4">
     <g id="line2d_19">
      <path d="M 51.14 144.09 
L 564.12 144.09 
" clip-path="url(#p0e67873440)" style="fill: none; stroke: #44475a; stroke-opacity: 0.5; stroke-width: 0.8; stroke-linecap: square"/>
     </g>
     <g id="line2d_20">
      <g>
       <use xlink:href="#m09b81762e1" x="51.14" y="144.09" style="fill: #f8f8f2; stroke: #f8f8f2; stroke-width: 0.8"/>
      </g>
     </g>
     <g id="text_11">
      <text style="font-size: 11px; font-family: 'DejaVu Sans', 'Bitstream Vera Sans', 'Computer Modern Sans Serif', 'Lucida Grande', 'Verdana', 'Geneva', 'Lucid', 'Arial', 'Helvetica', 'Avant Garde', sans-serif; text-anchor: end; fill: #f8f8f2" x="44.14" y="148.269141" transform="rotate(-0 44.14 148.269141)">0.6</text>
     </g>
    </g>
    <g id="ytick_5">
     <g id="line2d_21">
      <path d="M 51.14 88.79 
L 564.12 88.79 
" clip-path="url(#p0e67873440)" style="fill: none; stroke: #44475a; stroke-opacity: 0.5; stroke-width: 0.8; stroke-linecap: square"/>
     </g>
     <g id="line2d_22">
      <g>
       <use xlink:href="#m09b81762e1" x="51.14" y="88.79" style="fill: #f8f8f2; stroke: #f8f8f2; stroke-width: 0.8"/>
      </g>
     </g>
     <g id="text_12">
      <text style="font-size: 11px; font-family: 'DejaVu Sans', 'Bitstream Vera Sans', 'Computer Modern Sans Serif', 'Lucida Grande', 'Verdana', 'Geneva', 'Lucid', 'Arial', 'Helvetica', 'Avant Garde', sans-serif; text-anchor: end; fill: #f8f8f2" x="44.14" y="92.969141" transform="rotate(-0 44.14 92.969141)">0.8</text>
     </g>
    </g>
    <g id="ytick_6">
     <g id="line2d_23">
      <path d="M 51.14 33.49 
L 564.12 33.49 
" clip-path="url(#p0e67873440)" style="fill: none; stroke: #44475a; stroke-opacity: 0.5; stroke-width: 0.8; stroke-linecap: square"/>
     </g>
     <g id="line2d_24">
      <g>
       <use xlink:href="#m09b81762e1" x="51.14" y="33.49" style="fill: #f8f8f2; stroke: #f8f8f2; stroke-width: 0.8"/>
      </g>
     </g>
     <g id="text_13">
      <text style="font-size: 11px; font-family: 'DejaVu Sans', 'Bitstream Vera Sans', 'Computer Modern Sans Serif', 'Lucida Grande', 'Verdana', 'Geneva', 'Lucid', 'Arial', 'Helvetica', 'Avant Garde', sans-serif; text-anchor: end; fill: #f8f8f2" x="44.14" y="37.669141" transform="rotate(-0 44.14 37.669141)">1.0</text>
     </g>
    </g>
    <g id="text_14">
     <text style="font-size: 11px; font-family: 'DejaVu Sans', 'Bitstream Vera Sans', 'Computer Modern Sans Serif', 'Lucida Grande', 'Verdana', 'Geneva', 'Lucid', 'Arial', 'Helvetica', 'Avant Garde', sans-serif; text-anchor: middle; fill: #f8f8f2" x="20.358906" y="171.74" transform="rotate(-90 20.358906 171.74)">F1 Score</text>
    </g>
   </g>
   <g id="line2d_25">
    <path d="M 74.457273 229.344167 
L 167.726364 229.344167 
L 260.995455 229.344167 
L 354.264545 229.344167 
L 540.802727 229.344167 
" clip-path="url(#p0e67873440)" style="fill: none; stroke: #50fa7b; stroke-width: 1.5; stroke-linecap: square"/>
    <defs>
     <path id="md655485493" d="M 0 3 
C 0.795609 3 1.55874 2.683901 2.12132 2.12132 
C 2.683901 1.55874 3 0.795609 3 0 
C 3 -0.795609 2.683901 -1.55874 2.12132 -2.12132 
C 1.55874 -2.683901 0.795609 -3 0 -3 
C -0.795609 -3 -1.55874 -2.683901 -2.12132 -2.12132 
C -2.683901 -1.55874 -3 -0.795609 -3 0 
C -3 0.795609 -2.683901 1.55874 -2.12132 2.12132 
C -1.55874 2.683901 -0.795609 3 0 3 
z
" style="stroke: #50fa7b"/>
    </defs>
    <g clip-path="url(#p0e67873440)">
     <use xlink:href="#md655485493" x="74.457273" y="229.344167" style="fill: #50fa7b; stroke: #50fa7b"/>
     <use xlink:href="#md655485493" x="167.726364" y="229.344167" style="fill: #50fa7b; stroke: #50fa7b"/>
     <use xlink:href="#md655485493" x="260.995455" y="229.344167" style="fill: #50fa7b; stroke: #50fa7b"/>
     <use xlink:href="#md655485493" x="354.264545" y="229.344167" style="fill: #50fa7b; stroke: #50fa7b"/>
     <use xlink:href="#md655485493" x="540.802727" y="229.344167" style="fill: #50fa7b; stroke: #50fa7b"/>
    </g>
   </g>
   <g id="line2d_26">
    <path d="M 74.457273 309.99 
L 167.726364 309.99 
L 260.995455 309.99 
L 354.264545 309.99 
L 540.802727 309.99 
" clip-path="url(#p0e67873440)" style="fill: none; stroke: #8be9fd; stroke-width: 1.5; stroke-linecap: square"/>
    <defs>
     <path id="m9bf1e83a1d" d="M 0 3 
C 0.795609 3 1.55874 2.683901 2.12132 2.12132 
C 2.683901 1.55874 3 0.795609 3 0 
C 3 -0.795609 2.683901 -1.55874 2.12132 -2.12132 
C 1.55874 -2.683901 0.795609 -3 0 -3 
C -0.795609 -3 -1.55874 -2.683901 -2.12132 -2.12132 
C -2.683901 -1.55874 -3 -0.795609 -3 0 
C -3 0.795609 -2.683901 1.55874 -2.12132 2.12132 
C -1.55874 2.683901 -0.795609 3 0 3 
z
" style="stroke: #8be9fd"/>
    </defs>
    <g clip-path="url(#p0e67873440)">
     <use xlink:href="#m9bf1e83a1d" x="74.457273" y="309.99" style="fill: #8be9fd; stroke: #8be9fd"/>
     <use xlink:href="#m9bf1e83a1d" x="167.726364" y="309.99" style="fill: #8be9fd; stroke: #8be9fd"/>
     <use xlink:href="#m9bf1e83a1d" x="260.995455" y="309.99" style="fill: #8be9fd; stroke: #8be9fd"/>
     <use xlink:href="#m9bf1e83a1d" x="354.264545" y="309.99" style="fill: #8be9fd; stroke: #8be9fd"/>
     <use xlink:href="#m9bf1e83a1d" x="540.802727" y="309.99" style="fill: #8be9fd; stroke: #8be9fd"/>
    </g>
   </g>
   <g id="line2d_27">
    <path d="M 74.457273 196.4275 
L 167.726364 196.4275 
L 260.995455 196.4275 
L 354.264545 196.4275 
L 540.802727 196.4275 
" clip-path="url(#p0e67873440)" style="fill: none; stroke: #bd93f9; stroke-width: 1.5; stroke-linecap: square"/>
    <defs>
     <path id="m5e226d1a15" d="M 0 3 
C 0.795609 3 1.55874 2.683901 2.12132 2.12132 
C 2.683901 1.55874 3 0.795609 3 0 
C 3 -0.795609 2.683901 -1.55874 2.12132 -2.12132 
C 1.55874 -2.683901 0.795609 -3 0 -3 
C -0.795609 -3 -1.55874 -2.683901 -2.12132 -2.12132 
C -2.683901 -1.55874 -3 -0.795609 -3 0 
C -3 0.795609 -2.683901 1.55874 -2.12132 2.12132 
C -1.55874 2.683901 -0.795609 3 0 3 
z
" style="stroke: #bd93f9"/>
    </defs>
    <g clip-path="url(#p0e67873440)">
     <use xlink:href="#m5e226d1a15" x="74.457273" y="196.4275" style="fill: #bd93f9; stroke: #bd93f9"/>
     <use xlink:href="#m5e226d1a15" x="167.726364" y="196.4275" style="fill: #bd93f9; stroke: #bd93f9"/>
     <use xlink:href="#m5e226d1a15" x="260.995455" y="196.4275" style="fill: #bd93f9; stroke: #bd93f9"/>
     <use xlink:href="#m5e226d1a15" x="354.264545" y="196.4275" style="fill: #bd93f9; stroke: #bd93f9"/>
     <use xlink:href="#m5e226d1a15" x="540.802727" y="196.4275" style="fill: #bd93f9; stroke: #bd93f9"/>
    </g>
   </g>
   <g id="line2d_28">
    <path d="M 74.457273 309.99 
L 167.726364 309.99 
L 260.995455 309.99 
L 354.264545 309.99 
L 540.802727 309.99 
" clip-path="url(#p0e67873440)" style="fill: none; stroke: #ffb86c; stroke-width: 1.5; stroke-linecap: square"/>
    <defs>
     <path id="m1e2d14e744" d="M 0 3 
C 0.795609 3 1.55874 2.683901 2.12132 2.12132 
C 2.683901 1.55874 3 0.795609 3 0 
C 3 -0.795609 2.683901 -1.55874 2.12132 -2.12132 
C 1.55874 -2.683901 0.795609 -3 0 -3 
C -0.795609 -3 -1.55874 -2.683901 -2.12132 -2.12132 
C -2.683901 -1.55874 -3 -0.795609 -3 0 
C -3 0.795609 -2.683901 1.55874 -2.12132 2.12132 
C -1.55874 2.683901 -0.795609 3 0 3 
z
" style="stroke: #ffb86c"/>
    </defs>
    <g clip-path="url(#p0e67873440)">
     <use xlink:href="#m1e2d14e744" x="74.457273" y="309.99" style="fill: #ffb86c; stroke: #ffb86c"/>
     <use xlink:href="#m1e2d14e744" x="167.726364" y="309.99" style="fill: #ffb86c; stroke: #ffb86c"/>
     <use xlink:href="#m1e2d14e744" x="260.995455" y="309.99" style="fill: #ffb86c; stroke: #ffb86c"/>
     <use xlink:href="#m1e2d14e744" x="354.264545" y="309.99" style="fill: #ffb86c; stroke: #ffb86c"/>
     <use xlink:href="#m1e2d14e744" x="540.802727" y="309.99" style="fill: #ffb86c; stroke: #ffb86c"/>
    </g>
   </g>
   <g id="line2d_29">
    <path d="M 74.457273 220.1275 
L 167.726364 220.1275 
L 260.995455 220.1275 
L 354.264545 220.1275 
L 540.802727 220.1275 
" clip-path="url(#p0e67873440)" style="fill: none; stroke: #ff79c6; stroke-width: 1.5; stroke-linecap: square"/>
    <defs>
     <path id="mb84bc22032" d="M 0 3 
C 0.795609 3 1.55874 2.683901 2.12132 2.12132 
C 2.683901 1.55874 3 0.795609 3 0 
C 3 -0.795609 2.683901 -1.55874 2.12132 -2.12132 
C 1.55874 -2.683901 0.795609 -3 0 -3 
C -0.795609 -3 -1.55874 -2.683901 -2.12132 -2.12132 
C -2.683901 -1.55874 -3 -0.795609 -3 0 
C -3 0.795609 -2.683901 1.55874 -2.12132 2.12132 
C -1.55874 2.683901 -0.795609 3 0 3 
z
" style="stroke: #ff79c6"/>
    </defs>
    <g clip-path="url(#p0e67873440)">
     <use xlink:href="#mb84bc22032" x="74.457273" y="220.1275" style="fill: #ff79c6; stroke: #ff79c6"/>
     <use xlink:href="#mb84bc22032" x="167.726364" y="220.1275" style="fill: #ff79c6; stroke: #ff79c6"/>
     <use xlink:href="#mb84bc22032" x="260.995455" y="220.1275" style="fill: #ff79c6; stroke: #ff79c6"/>
     <use xlink:href="#mb84bc22032" x="354.264545" y="220.1275" style="fill: #ff79c6; stroke: #ff79c6"/>
     <use xlink:href="#mb84bc22032" x="540.802727" y="220.1275" style="fill: #ff79c6; stroke: #ff79c6"/>
    </g>
   </g>
   <g id="patch_3">
    <path d="M 51.14 315.52 
L 51.14 27.96 
" style="fill: none; stroke: #6272a4; stroke-width: 0.8; stroke-linejoin: miter; stroke-linecap: square"/>
   </g>
   <g id="patch_4">
    <path d="M 564.12 315.52 
L 564.12 27.96 
" style="fill: none; stroke: #6272a4; stroke-width: 0.8; stroke-linejoin: miter; stroke-linecap: square"/>
   </g>
   <g id="patch_5">
    <path d="M 51.14 315.52 
L 564.12 315.52 
" style="fill: none; stroke: #6272a4; stroke-width: 0.8; stroke-linejoin: miter; stroke-linecap: square"/>
   </g>
   <g id="patch_6">
    <path d="M 51.14 27.96 
L 564.12 27.96 
" style="fill: none; stroke: #6272a4; stroke-width: 0.8; stroke-linejoin: miter; stroke-linecap: square"/>
   </g>
   <g id="text_15">
    <text style="font-size: 13.2px; font-family: 'DejaVu Sans', 'Bitstream Vera Sans', 'Computer Modern Sans Serif', 'Lucida Grande', 'Verdana', 'Geneva', 'Lucid', 'Arial', 'Helvetica', 'Avant Garde', sans-serif; text-anchor: middle; fill: #f8f8f2" x="307.63" y="21.96" transform="rotate(-0 307.63 21.96)">F1 vs. Recency Weight (per repo)</text>
   </g>
   <g id="legend_1">
    <g id="patch_7">
     <path d="M 481.07 117.489687 
L 556.42 117.489687 
Q 558.62 117.489687 558.62 115.289687 
L 558.62 35.66 
Q 558.62 33.46 556.42 33.46 
L 481.07 33.46 
Q 478.87 33.46 478.87 35.66 
L 478.87 115.289687 
Q 478.87 117.489687 481.07 117.489687 
z
" style="fill: #44475a; opacity: 0.8; stroke: #6272a4; stroke-linejoin: miter"/>
    </g>
    <g id="line2d_30">
     <path d="M 483.27 42.368281 
L 494.27 42.368281 
L 505.27 42.368281 
" style="fill: none; stroke: #50fa7b; stroke-width: 1.5; stroke-linecap: square"/>
     <g>
      <use xlink:href="#md655485493" x="494.27" y="42.368281" style="fill: #50fa7b; stroke: #50fa7b"/>
     </g>
    </g>
    <g id="text_16">
     <text style="font-size: 11px; font-family: 'DejaVu Sans', 'Bitstream Vera Sans', 'Computer Modern Sans Serif', 'Lucida Grande', 'Verdana', 'Geneva', 'Lucid', 'Arial', 'Helvetica', 'Avant Garde', sans-serif; text-anchor: start; fill: #f8f8f2" x="514.07" y="46.218281" transform="rotate(-0 514.07 46.218281)">django</text>
    </g>
    <g id="line2d_31">
     <path d="M 483.27 58.514219 
L 494.27 58.514219 
L 505.27 58.514219 
" style="fill: none; stroke: #8be9fd; stroke-width: 1.5; stroke-linecap: square"/>
     <g>
      <use xlink:href="#m9bf1e83a1d" x="494.27" y="58.514219" style="fill: #8be9fd; stroke: #8be9fd"/>
     </g>
    </g>
    <g id="text_17">
     <text style="font-size: 11px; font-family: 'DejaVu Sans', 'Bitstream Vera Sans', 'Computer Modern Sans Serif', 'Lucida Grande', 'Verdana', 'Geneva', 'Lucid', 'Arial', 'Helvetica', 'Avant Garde', sans-serif; text-anchor: start; fill: #f8f8f2" x="514.07" y="62.364219" transform="rotate(-0 514.07 62.364219)">go</text>
    </g>
    <g id="line2d_32">
     <path d="M 483.27 74.660156 
L 494.27 74.660156 
L 505.27 74.660156 
" style="fill: none; stroke: #bd93f9; stroke-width: 1.5; stroke-linecap: square"/>
     <g>
      <use xlink:href="#m5e226d1a15" x="494.27" y="74.660156" style="fill: #bd93f9; stroke: #bd93f9"/>
     </g>
    </g>
    <g id="text_18">
     <text style="font-size: 11px; font-family: 'DejaVu Sans', 'Bitstream Vera Sans', 'Computer Modern Sans Serif', 'Lucida Grande', 'Verdana', 'Geneva', 'Lucid', 'Arial', 'Helvetica', 'Avant Garde', sans-serif; text-anchor: start; fill: #f8f8f2" x="514.07" y="78.510156" transform="rotate(-0 514.07 78.510156)">nushell</text>
    </g>
    <g id="line2d_33">
     <path d="M 483.27 90.806094 
L 494.27 90.806094 
L 505.27 90.806094 
" style="fill: none; stroke: #ffb86c; stroke-width: 1.5; stroke-linecap: square"/>
     <g>
      <use xlink:href="#m1e2d14e744" x="494.27" y="90.806094" style="fill: #ffb86c; stroke: #ffb86c"/>
     </g>
    </g>
    <g id="text_19">
     <text style="font-size: 11px; font-family: 'DejaVu Sans', 'Bitstream Vera Sans', 'Computer Modern Sans Serif', 'Lucida Grande', 'Verdana', 'Geneva', 'Lucid', 'Arial', 'Helvetica', 'Avant Garde', sans-serif; text-anchor: start; fill: #f8f8f2" x="514.07" y="94.656094" transform="rotate(-0 514.07 94.656094)">pandas</text>
    </g>
    <g id="line2d_34">
     <path d="M 483.27 106.952031 
L 494.27 106.952031 
L 505.27 106.952031 
" style="fill: none; stroke: #ff79c6; stroke-width: 1.5; stroke-linecap: square"/>
     <g>
      <use xlink:href="#mb84bc22032" x="494.27" y="106.952031" style="fill: #ff79c6; stroke: #ff79c6"/>
     </g>
    </g>
    <g id="text_20">
     <text style="font-size: 11px; font-family: 'DejaVu Sans', 'Bitstream Vera Sans', 'Computer Modern Sans Serif', 'Lucida Grande', 'Verdana', 'Geneva', 'Lucid', 'Arial', 'Helvetica', 'Avant Garde', sans-serif; text-anchor: start; fill: #f8f8f2" x="514.07" y="110.802031" transform="rotate(-0 514.07 110.802031)">typst</text>
    </g>
   </g>
  </g>
 </g>
 <defs>
  <clipPath id="p0e67873440">
   <rect x="51.14" y="27.96" width="512.98" height="287.56"/>
  </clipPath>
 </defs>
</svg>
